<?xml version="1.0" standalone="no"?>
<!DOCTYPE svg PUBLIC "-//W3C//DTD SVG 20010904//EN"
 "http://www.w3.org/TR/2001/REC-SVG-20010904/DTD/svg10.dtd">
<svg version="1.0" xmlns="http://www.w3.org/2000/svg"
 width="644.000000pt" height="634.000000pt" viewBox="0 0 644.000000 634.000000"
 preserveAspectRatio="xMidYMid meet">

<g transform="translate(0.000000,634.000000) scale(0.100000,-0.100000)"
fill="#000000" stroke="none">
<path d="M0 3170 l0 -3170 3220 0 3220 0 0 3170 0 3170 -3220 0 -3220 0 0
-3170z m2878 363 l2 -1343 1228 -2 1227 -3 3 -452 2 -453 -1778 0 -1779 0 -7
1138 c-3 625 -4 1146 -2 1157 2 11 5 309 5 663 l1 642 548 -2 547 -3 3 -1342z"/>
</g>
</svg>
